<svg width="22" height="22" viewBox="0 0 22 22" fill="none" xmlns="http://www.w3.org/2000/svg">
<g clip-path="url(#clip0_0_74)">
<path d="M11 0.6875C8.96038 0.6875 6.96656 1.29232 5.27068 2.42547C3.5748 3.55862 2.25302 5.16921 1.47249 7.05358C0.691965 8.93794 0.487743 11.0114 0.885653 13.0119C1.28356 15.0123 2.26573 16.8498 3.70796 18.292C5.15019 19.7343 6.9877 20.7164 8.98813 21.1143C10.9886 21.5123 13.0621 21.308 14.9464 20.5275C16.8308 19.747 18.4414 18.4252 19.5745 16.7293C20.7077 15.0334 21.3125 13.0396 21.3125 11C21.3094 8.2659 20.2219 5.64468 18.2886 3.71138C16.3553 1.77808 13.7341 0.690593 11 0.6875ZM11 4.8125C11.136 4.8125 11.2689 4.85282 11.382 4.92836C11.495 5.00391 11.5831 5.11128 11.6352 5.23691C11.6872 5.36253 11.7008 5.50076 11.6743 5.63412C11.6478 5.76749 11.5823 5.88999 11.4861 5.98614C11.39 6.08228 11.2675 6.14776 11.1341 6.17429C11.0008 6.20082 10.8625 6.1872 10.7369 6.13517C10.6113 6.08313 10.5039 5.99501 10.4284 5.88195C10.3528 5.7689 10.3125 5.63597 10.3125 5.5C10.3125 5.31766 10.3849 5.1428 10.5139 5.01386C10.6428 4.88493 10.8177 4.8125 11 4.8125ZM13.0625 17.1875H11C10.8177 17.1875 10.6428 17.1151 10.5139 16.9861C10.3849 16.8572 10.3125 16.6823 10.3125 16.5V8.9375H8.9375C8.75516 8.9375 8.5803 8.86507 8.45136 8.73614C8.32243 8.6072 8.25 8.43234 8.25 8.25C8.25 8.06766 8.32243 7.8928 8.45136 7.76386C8.5803 7.63493 8.75516 7.5625 8.9375 7.5625H11C11.1823 7.5625 11.3572 7.63493 11.4861 7.76386C11.6151 7.8928 11.6875 8.06766 11.6875 8.25V15.8125H13.0625C13.2448 15.8125 13.4197 15.8849 13.5486 16.0139C13.6776 16.1428 13.75 16.3177 13.75 16.5C13.75 16.6823 13.6776 16.8572 13.5486 16.9861C13.4197 17.1151 13.2448 17.1875 13.0625 17.1875Z" fill="black"/>
</g>
<defs>
<clipPath id="clip0_0_74">
<rect width="22" height="22" fill="white"/>
</clipPath>
</defs>
</svg>
