<svg width="22" height="22" viewBox="0 0 22 22" fill="none" xmlns="http://www.w3.org/2000/svg">
<g clip-path="url(#clip0_0_69)">
<path d="M16.4058 5.40579C16.4058 2.42047 13.9879 0 11 0C8.01468 0 5.59421 2.42047 5.59421 5.40579C5.59421 8.39115 8.01468 10.8116 11 10.8116C13.988 10.8116 16.4058 8.39115 16.4058 5.40579ZM6.94559 5.52274C6.94559 5.52274 6.78969 3.98936 7.89421 2.81983C8.6716 3.59909 11 5.52274 15.0544 5.52274C15.0544 7.75853 13.2357 9.57715 11 9.57715C8.76433 9.57715 6.94559 7.75841 6.94559 5.52274Z" fill="#DC143C"/>
<path d="M1.72177 14.97V17.361V20.4537C1.72177 21.3085 2.41493 22 3.26811 22H18.7319C19.5867 22 20.2782 21.3084 20.2782 20.4537V17.361V14.97C20.2782 13.262 18.8949 11.8773 17.1855 11.8773H14.4437C14.2499 11.8773 14.0057 12.008 13.8983 12.1692L11.1948 15.9905C11.0873 16.1518 10.913 16.1518 10.8055 15.9905L8.10194 12.1691C7.99446 12.0078 7.75024 11.8771 7.55646 11.8771H4.81449C3.10801 11.8771 1.72177 13.262 1.72177 14.97Z" fill="#DC143C"/>
</g>
<defs>
<clipPath id="clip0_0_69">
<rect width="22" height="22" fill="white"/>
</clipPath>
</defs>
</svg>
