<svg width="16" height="16" viewBox="0 0 16 16" fill="none" xmlns="http://www.w3.org/2000/svg">
<g clip-path="url(#clip0_0_177)">
<path d="M13.6569 2.34319C12.1458 0.832216 10.1369 0 8.00003 0C5.86315 0 3.85416 0.832216 2.34314 2.34319C0.832164 3.85416 0 5.86315 0 8.00003C0 10.1368 0.832164 12.1458 2.34314 13.6568C3.85416 15.1678 5.8631 15.9999 7.99997 15.9999C10.1368 15.9999 12.1458 15.1678 13.6568 13.6568C15.1678 12.1458 15.9999 10.1368 15.9999 8.00003C16 5.86315 15.1678 3.85416 13.6569 2.34319ZM12.5057 6.27315L7.97424 11.328C7.8476 11.4692 7.66552 11.5503 7.47468 11.5503H7.47463C7.30905 11.5502 7.15028 11.4896 7.02755 11.3796L3.64898 8.35088C3.37372 8.10414 3.35057 7.67944 3.59731 7.40429L4.33248 6.58419C4.45913 6.44295 4.6412 6.36189 4.83205 6.36189C4.99762 6.36189 5.15639 6.42248 5.27907 6.53247L7.06963 8.13776C7.13553 8.1968 7.22092 8.22929 7.31013 8.22929C7.41321 8.22929 7.51134 8.18571 7.57935 8.10986L10.6872 4.64306C10.8139 4.50182 10.9959 4.42076 11.1868 4.42076C11.3524 4.42076 11.5111 4.48135 11.6338 4.59139L12.4539 5.32661C12.7293 5.5733 12.7525 5.99794 12.5057 6.27315Z" fill="#DC143C"/>
</g>
<defs>
<clipPath id="clip0_0_177">
<rect width="16" height="16" fill="white"/>
</clipPath>
</defs>
</svg>
