<svg width="32" height="32" viewBox="0 0 32 32" fill="none" xmlns="http://www.w3.org/2000/svg">
<path d="M6 28.0003C5.46667 28.0003 5 27.8003 4.6 27.4003C4.2 27.0003 4 26.5336 4 26.0003V19.0003H6V26.0003H26V5.93359H6V13.0003H4V5.93359C4 5.40026 4.2 4.93359 4.6 4.53359C5 4.13359 5.46667 3.93359 6 3.93359H26C26.5333 3.93359 27 4.13359 27.4 4.53359C27.8 4.93359 28 5.40026 28 5.93359V26.0003C28 26.5336 27.8 27.0003 27.4 27.4003C27 27.8003 26.5333 28.0003 26 28.0003H6ZM13.7667 22.4336L12.2667 20.9336L16.2 17.0003H4V15.0003H16.2L12.2667 11.0669L13.7667 9.56693L20.2 16.0003L13.7667 22.4336Z" fill="#DC143C"/>
</svg>
