<svg width="24" height="24" viewBox="0 0 24 24" fill="none" xmlns="http://www.w3.org/2000/svg">
<path d="M19.5637 3.31131L15.2362 2.21631C15.0289 2.63426 13.7919 5.07745 13.5525 5.55384L14.7525 13.0576C14.7918 13.3057 14.7681 13.5597 14.6836 13.7963C14.5991 14.0328 14.4564 14.2443 14.2687 14.4113L12.675 15.8326C12.4624 16.0213 12.1865 16.1231 11.9023 16.1175C11.618 16.1119 11.3463 15.9995 11.1412 15.8026L9.645 14.3476C9.47297 14.1801 9.34341 13.974 9.26709 13.7463C9.19078 13.5187 9.16992 13.2761 9.20625 13.0388L10.3762 5.55381C10.122 5.08633 8.82207 2.68756 8.59125 2.26131L4.43625 3.31131C3.97431 3.42747 3.5644 3.69461 3.27159 4.0703C2.97877 4.446 2.81984 4.90873 2.82 5.38506V10.8488C2.87552 15.3516 5.60802 19.8775 10.7549 22.2414C11.1478 22.412 11.5716 22.5001 11.9999 22.5001C12.4283 22.5 12.8521 22.412 13.245 22.2413C18.3922 19.8788 21.1259 15.3511 21.1801 10.8489L21.18 5.38506C21.1802 4.90873 21.0212 4.446 20.7284 4.0703C20.4356 3.69461 20.0257 3.42747 19.5637 3.31131Z" fill="black"/>
<path d="M10.9913 5.11503H12.9338C13.1886 4.61018 14.2586 2.49074 14.49 2.02878C13.5574 1.82296 12.1644 1.28021 11.2125 1.59758L9.345 2.07003C9.58484 2.51742 10.7262 4.62565 10.9913 5.11503Z" fill="black"/>
<path d="M9.94875 13.1551C9.93055 13.2733 9.94078 13.3941 9.97861 13.5076C10.0164 13.6211 10.0808 13.7239 10.1662 13.8076L11.6662 15.2626C11.7338 15.3291 11.8242 15.3674 11.919 15.3694C12.0138 15.3715 12.1058 15.3373 12.1762 15.2738L13.77 13.8526C13.8642 13.769 13.9357 13.6629 13.9777 13.5442C14.0196 13.4254 14.0308 13.298 14.01 13.1738L12.8475 5.86505H11.0887L9.94875 13.1551Z" fill="black"/>
</svg>
