<svg width="22" height="22" viewBox="0 0 22 22" fill="none" xmlns="http://www.w3.org/2000/svg">
<g clip-path="url(#clip0_0_6)">
<path d="M18.7846 3.22864C16.709 1.14949 13.9469 0.00309718 10.9992 0.000244141C4.93951 0.000244141 0.00517266 4.92941 1.51934e-06 10.9889C-0.00285153 13.9274 1.1389 16.6907 3.21413 18.7706C5.29008 20.8492 8.04131 21.9997 10.9796 21.9997H11.0051V21.9986C17.0213 21.9986 21.9955 17.0684 22 11.0092C22.0029 8.07097 20.8595 5.30798 18.7846 3.22864ZM11.488 16.8118C11.3615 16.9395 11.1848 17.0126 11.0033 17.0126C10.8211 17.0122 10.6438 16.9388 10.516 16.8093C10.389 16.6834 10.3161 16.5065 10.3163 16.3245C10.3166 16.1429 10.3904 15.965 10.5183 15.8375C10.6456 15.7105 10.8332 15.6374 11.0051 15.6374C11.1861 15.6374 11.363 15.7109 11.4892 15.8382C11.6183 15.9684 11.6923 16.1465 11.692 16.3255C11.6918 16.5053 11.6174 16.6823 11.488 16.8118ZM11.8189 12.6012C11.7405 12.6185 11.6843 12.6881 11.6841 12.7685L11.6832 13.5763C11.6829 13.9547 11.3749 14.2631 10.9951 14.2631C10.6156 14.2628 10.3081 13.9538 10.3084 13.575L10.31 12.0164C10.3104 11.6382 10.6183 11.3441 10.9972 11.3441H11.0003C12.3148 11.3441 13.3852 10.26 13.3867 8.94543C13.3872 8.30849 13.1399 7.70239 12.6895 7.25036C12.2374 6.79869 11.6388 6.54655 11.0006 6.54584C9.68591 6.54584 8.61513 7.61377 8.6137 8.9292C8.61334 9.30777 8.30503 9.61482 7.9254 9.61482C7.74174 9.61482 7.56895 9.54243 7.43949 9.41226C7.3095 9.28244 7.23853 9.10966 7.23871 8.92617C7.24067 6.85361 8.92807 5.16711 11.0033 5.16711C13.0776 5.16925 14.7633 6.85825 14.7613 8.93223C14.7599 10.6785 13.5229 12.2216 11.8189 12.6012Z" fill="#DC143C"/>
</g>
<defs>
<clipPath id="clip0_0_6">
<rect width="22" height="22" fill="white"/>
</clipPath>
</defs>
</svg>
